{
	"asset": {
		"generator": "Tilt Brush 23.2.28f36f08b",
		"version": "1.1",
		"copyright": "Unknown."
	},
	"buffers": {
		"buffer_sketch": {
			"byteLength": 326312,
			"type": "arraybuffer",
			"uri": "sketch.bin"
		}
	},
	"accessors": {
		"accessor_position_Ink_f5c336cf-5108-4b40-ade9-c687504385ab_0_i0": {
			"bufferView": "vec3BufferView",
			"byteOffset": 0,
			"byteStride": 12,
			"componentType": 5126,
			"count": 866,
			"max": [ 0.332890213, 1.13544977, -0.0596524142 ],
			"min": [ 0.066404283, 0.918082893, -0.236741215 ],
			"type": "VEC3"
		},
		"accessor_normal_Ink_f5c336cf-5108-4b40-ade9-c687504385ab_0_i0": {
			"bufferView": "vec3BufferView",
			"byteOffset": 10392,
			"byteStride": 12,
			"componentType": 5126,
			"count": 866,
			"type": "VEC3"
		},
		"accessor_color_Ink_f5c336cf-5108-4b40-ade9-c687504385ab_0_i0": {
			"bufferView": "vec4BufferView",
			"byteOffset": 0,
			"byteStride": 16,
			"componentType": 5126,
			"count": 866,
			"type": "VEC4"
		},
		"accessor_tangent_Ink_f5c336cf-5108-4b40-ade9-c687504385ab_0_i0": {
			"bufferView": "vec4BufferView",
			"byteOffset": 13856,
			"byteStride": 16,
			"componentType": 5126,
			"count": 866,
			"type": "VEC4"
		},
		"accessor_uv0_Ink_f5c336cf-5108-4b40-ade9-c687504385ab_0_i0": {
			"bufferView": "vec2BufferView",
			"byteOffset": 0,
			"byteStride": 8,
			"componentType": 5126,
			"count": 866,
			"type": "VEC2"
		},
		"accessor_indices_0_Ink_f5c336cf-5108-4b40-ade9-c687504385ab_0_i0": {
			"bufferView": "ushortBufferView",
			"byteOffset": 0,
			"byteStride": 0,
			"componentType": 5123,
			"count": 2442,
			"max": [ 865 ],
			"min": [ 0 ],
			"type": "SCALAR"
		},
		"accessor_position_UnlitHull_a8fea537-da7c-4d4b-817f-24f074725d6d_0_i0": {
			"bufferView": "vec3BufferView",
			"byteOffset": 20784,
			"byteStride": 12,
			"componentType": 5126,
			"count": 4926,
			"max": [ 0.341729879, 1.13406062, -0.0799993947 ],
			"min": [ 0.0685511455, 0.934355438, -0.243017182 ],
			"type": "VEC3"
		},
		"accessor_normal_UnlitHull_a8fea537-da7c-4d4b-817f-24f074725d6d_0_i0": {
			"bufferView": "vec3BufferView",
			"byteOffset": 79896,
			"byteStride": 12,
			"componentType": 5126,
			"count": 4926,
			"type": "VEC3"
		},
		"accessor_color_UnlitHull_a8fea537-da7c-4d4b-817f-24f074725d6d_0_i0": {
			"bufferView": "vec4BufferView",
			"byteOffset": 27712,
			"byteStride": 16,
			"componentType": 5126,
			"count": 4926,
			"type": "VEC4"
		},
		"accessor_uv0_UnlitHull_a8fea537-da7c-4d4b-817f-24f074725d6d_0_i0": {
			"bufferView": "vec3BufferView",
			"byteOffset": 139008,
			"byteStride": 12,
			"componentType": 5126,
			"count": 4926,
			"type": "VEC3"
		},
		"accessor_indices_0_UnlitHull_a8fea537-da7c-4d4b-817f-24f074725d6d_0_i0": {
			"bufferView": "ushortBufferView",
			"byteOffset": 4884,
			"byteStride": 0,
			"componentType": 5123,
			"count": 4926,
			"max": [ 4925 ],
			"min": [ 0 ],
			"type": "SCALAR"
		}
	},
	"bufferViews": {
		"ushortBufferView": {
			"buffer": "buffer_sketch",
			"byteLength": 14736,
			"byteOffset": 0,
			"target": 34963
		},
		"vec2BufferView": {
			"buffer": "buffer_sketch",
			"byteLength": 6928,
			"byteOffset": 14736,
			"target": 34962
		},
		"vec3BufferView": {
			"buffer": "buffer_sketch",
			"byteLength": 198120,
			"byteOffset": 21664,
			"target": 34962
		},
		"vec4BufferView": {
			"buffer": "buffer_sketch",
			"byteLength": 106528,
			"byteOffset": 219784,
			"target": 34962
		}
	},
	"meshes": {
		"mesh_Ink_f5c336cf-5108-4b40-ade9-c687504385ab_0_i0": {
			"name": "mesh_Ink_f5c336cf-5108-4b40-ade9-c687504385ab_0_i0",
			"primitives": [
				{
					"attributes": {
						"POSITION": "accessor_position_Ink_f5c336cf-5108-4b40-ade9-c687504385ab_0_i0",
						"NORMAL": "accessor_normal_Ink_f5c336cf-5108-4b40-ade9-c687504385ab_0_i0",
						"COLOR": "accessor_color_Ink_f5c336cf-5108-4b40-ade9-c687504385ab_0_i0",
						"TANGENT": "accessor_tangent_Ink_f5c336cf-5108-4b40-ade9-c687504385ab_0_i0",
						"TEXCOORD_0": "accessor_uv0_Ink_f5c336cf-5108-4b40-ade9-c687504385ab_0_i0"
					},
					"indices": "accessor_indices_0_Ink_f5c336cf-5108-4b40-ade9-c687504385ab_0_i0",
					"material": "material_f5c336cf-5108-4b40-ade9-c687504385ab",
					"mode": 4
				}
			]
		},
		"mesh_UnlitHull_a8fea537-da7c-4d4b-817f-24f074725d6d_0_i0": {
			"name": "mesh_UnlitHull_a8fea537-da7c-4d4b-817f-24f074725d6d_0_i0",
			"primitives": [
				{
					"attributes": {
						"POSITION": "accessor_position_UnlitHull_a8fea537-da7c-4d4b-817f-24f074725d6d_0_i0",
						"NORMAL": "accessor_normal_UnlitHull_a8fea537-da7c-4d4b-817f-24f074725d6d_0_i0",
						"COLOR": "accessor_color_UnlitHull_a8fea537-da7c-4d4b-817f-24f074725d6d_0_i0",
						"TEXCOORD_0": "accessor_uv0_UnlitHull_a8fea537-da7c-4d4b-817f-24f074725d6d_0_i0"
					},
					"indices": "accessor_indices_0_UnlitHull_a8fea537-da7c-4d4b-817f-24f074725d6d_0_i0",
					"material": "material_a8fea537-da7c-4d4b-817f-24f074725d6d",
					"mode": 4
				}
			]
		}
	},
	"shaders": {
		"vertex_f5c336cf-5108-4b40-ade9-c687504385ab": {
			"type": 35633,
			"uri": "https://www.tiltbrush.com/shaders/brushes/Ink-f5c336cf-5108-4b40-ade9-c687504385ab/Ink-f5c336cf-5108-4b40-ade9-c687504385ab-v10.0-vertex.glsl"
		},
		"fragment_f5c336cf-5108-4b40-ade9-c687504385ab": {
			"type": 35632,
			"uri": "https://www.tiltbrush.com/shaders/brushes/Ink-f5c336cf-5108-4b40-ade9-c687504385ab/Ink-f5c336cf-5108-4b40-ade9-c687504385ab-v10.0-fragment.glsl"
		},
		"vertex_a8fea537-da7c-4d4b-817f-24f074725d6d": {
			"type": 35633,
			"uri": "https://www.tiltbrush.com/shaders/brushes/UnlitHull-a8fea537-da7c-4d4b-817f-24f074725d6d/UnlitHull-a8fea537-da7c-4d4b-817f-24f074725d6d-v10.0-vertex.glsl"
		},
		"fragment_a8fea537-da7c-4d4b-817f-24f074725d6d": {
			"type": 35632,
			"uri": "https://www.tiltbrush.com/shaders/brushes/UnlitHull-a8fea537-da7c-4d4b-817f-24f074725d6d/UnlitHull-a8fea537-da7c-4d4b-817f-24f074725d6d-v10.0-fragment.glsl"
		}
	},
	"programs": {
		"program_f5c336cf-5108-4b40-ade9-c687504385ab": {
			"attributes": [
				"a_position",
				"a_normal",
				"a_color",
				"a_tangent",
				"a_texcoord0"
			],
			"vertexShader": "vertex_f5c336cf-5108-4b40-ade9-c687504385ab",
			"fragmentShader": "fragment_f5c336cf-5108-4b40-ade9-c687504385ab"
		},
		"program_a8fea537-da7c-4d4b-817f-24f074725d6d": {
			"attributes": [
				"a_position",
				"a_normal",
				"a_color",
				"a_texcoord0"
			],
			"vertexShader": "vertex_a8fea537-da7c-4d4b-817f-24f074725d6d",
			"fragmentShader": "fragment_a8fea537-da7c-4d4b-817f-24f074725d6d"
		}
	},
	"techniques": {
		"technique_f5c336cf-5108-4b40-ade9-c687504385ab": {
			"program": "program_f5c336cf-5108-4b40-ade9-c687504385ab",
			"parameters": {
				"position": {
					"type": 35665,
					"semantic": "POSITION"
				},
				"normal": {
					"type": 35665,
					"semantic": "NORMAL"
				},
				"color": {
					"type": 35666,
					"semantic": "COLOR"
				},
				"tangent": {
					"type": 35666,
					"semantic": "TANGENT"
				},
				"texcoord0": {
					"type": 35664,
					"semantic": "TEXCOORD_0"
				},
				"modelViewMatrix": {
					"type": 35676,
					"semantic": "MODELVIEW"
				},
				"projectionMatrix": {
					"type": 35676,
					"semantic": "PROJECTION"
				},
				"normalMatrix": {
					"type": 35675,
					"semantic": "MODELVIEWINVERSETRANSPOSE"
				},
				"SceneLight_0_matrix": {
					"type": 35676,
					"semantic": "MODELVIEW",
					"node": "node_SceneLight_0_i1"
				},
				"SceneLight_0_color": {
					"type": 35666,
					"node": "node_SceneLight_0_i1"
				},
				"SceneLight_1_matrix": {
					"type": 35676,
					"semantic": "MODELVIEW",
					"node": "node_SceneLight_1_i2"
				},
				"SceneLight_1_color": {
					"type": 35666,
					"node": "node_SceneLight_1_i2"
				},
				"ambient_light_color": {
					"type": 35666
				},
				"Shininess": {
					"type": 5126
				},
				"Cutoff": {
					"type": 5126
				},
				"Color": {
					"type": 35666
				},
				"SpecColor": {
					"type": 35666
				},
				"MainTex_TexelSize": {
					"type": 35666
				},
				"BumpMap_TexelSize": {
					"type": 35666
				},
				"MainTex": {
					"type": 35678
				},
				"BumpMap": {
					"type": 35678
				}
			},
			"attributes": {
				"a_position": "position",
				"a_normal": "normal",
				"a_color": "color",
				"a_tangent": "tangent",
				"a_texcoord0": "texcoord0"
			},
			"uniforms": {
				"u_modelViewMatrix": "modelViewMatrix",
				"u_projectionMatrix": "projectionMatrix",
				"u_normalMatrix": "normalMatrix",
				"u_SceneLight_0_matrix": "SceneLight_0_matrix",
				"u_SceneLight_0_color": "SceneLight_0_color",
				"u_SceneLight_1_matrix": "SceneLight_1_matrix",
				"u_SceneLight_1_color": "SceneLight_1_color",
				"u_ambient_light_color": "ambient_light_color",
				"u_Shininess": "Shininess",
				"u_Cutoff": "Cutoff",
				"u_Color": "Color",
				"u_SpecColor": "SpecColor",
				"u_MainTex_TexelSize": "MainTex_TexelSize",
				"u_BumpMap_TexelSize": "BumpMap_TexelSize",
				"u_MainTex": "MainTex",
				"u_BumpMap": "BumpMap"
			},
			"states": {
				"enable": [
					2929
				],
				"functions": {
					"depthMask": [true]
				}
			}
		},
		"technique_a8fea537-da7c-4d4b-817f-24f074725d6d": {
			"program": "program_a8fea537-da7c-4d4b-817f-24f074725d6d",
			"parameters": {
				"position": {
					"type": 35665,
					"semantic": "POSITION"
				},
				"normal": {
					"type": 35665,
					"semantic": "NORMAL"
				},
				"color": {
					"type": 35666,
					"semantic": "COLOR"
				},
				"texcoord0": {
					"type": 35665,
					"semantic": "TEXCOORD_0"
				},
				"modelViewMatrix": {
					"type": 35676,
					"semantic": "MODELVIEW"
				},
				"projectionMatrix": {
					"type": 35676,
					"semantic": "PROJECTION"
				},
				"normalMatrix": {
					"type": 35675,
					"semantic": "MODELVIEWINVERSETRANSPOSE"
				},
				"SceneLight_0_matrix": {
					"type": 35676,
					"semantic": "MODELVIEW",
					"node": "node_SceneLight_0_i1"
				},
				"SceneLight_0_color": {
					"type": 35666,
					"node": "node_SceneLight_0_i1"
				},
				"SceneLight_1_matrix": {
					"type": 35676,
					"semantic": "MODELVIEW",
					"node": "node_SceneLight_1_i2"
				},
				"SceneLight_1_color": {
					"type": 35666,
					"node": "node_SceneLight_1_i2"
				},
				"ambient_light_color": {
					"type": 35666
				},
				"Cutoff": {
					"type": 5126
				}
			},
			"attributes": {
				"a_position": "position",
				"a_normal": "normal",
				"a_color": "color",
				"a_texcoord0": "texcoord0"
			},
			"uniforms": {
				"u_modelViewMatrix": "modelViewMatrix",
				"u_projectionMatrix": "projectionMatrix",
				"u_normalMatrix": "normalMatrix",
				"u_SceneLight_0_matrix": "SceneLight_0_matrix",
				"u_SceneLight_0_color": "SceneLight_0_color",
				"u_SceneLight_1_matrix": "SceneLight_1_matrix",
				"u_SceneLight_1_color": "SceneLight_1_color",
				"u_ambient_light_color": "ambient_light_color",
				"u_Cutoff": "Cutoff"
			},
			"states": {
				"enable": [
					2929
				],
				"functions": {
					"depthMask": [true]
				}
			}
		}
	},
	"samplers": {
		"sampler_LINEAR_LINEAR_MIPMAP_LINEAR_REPEAT": {
			"magFilter": 9729,
			"minFilter": 9987,
			"wrapS": 10497,
			"wrapT": 10497
		}
	},
	"textures": {
		"texture_f5c336cf-5108-4b40-ade9-c687504385ab_MainTex": {
			"format": 6408,
			"internalFormat": 6408,
			"sampler": "sampler_LINEAR_LINEAR_MIPMAP_LINEAR_REPEAT",
			"source": "image_f5c336cf-5108-4b40-ade9-c687504385ab_MainTex",
			"target": 3553,
			"type": 5121
		},
		"texture_f5c336cf-5108-4b40-ade9-c687504385ab_BumpMap": {
			"format": 6408,
			"internalFormat": 6408,
			"sampler": "sampler_LINEAR_LINEAR_MIPMAP_LINEAR_REPEAT",
			"source": "image_f5c336cf-5108-4b40-ade9-c687504385ab_BumpMap",
			"target": 3553,
			"type": 5121
		}
	},
	"images": {
		"image_f5c336cf-5108-4b40-ade9-c687504385ab_MainTex": {
			"uri": "https://www.tiltbrush.com/shaders/brushes/Ink-f5c336cf-5108-4b40-ade9-c687504385ab/Ink-f5c336cf-5108-4b40-ade9-c687504385ab-v10.0-MainTex.png"
		},
		"image_f5c336cf-5108-4b40-ade9-c687504385ab_BumpMap": {
			"uri": "https://www.tiltbrush.com/shaders/brushes/Ink-f5c336cf-5108-4b40-ade9-c687504385ab/Ink-f5c336cf-5108-4b40-ade9-c687504385ab-v10.0-BumpMap.png"
		}
	},
	"materials": {
		"material_f5c336cf-5108-4b40-ade9-c687504385ab": {
			"technique": "technique_f5c336cf-5108-4b40-ade9-c687504385ab",
			"values": {
				"SceneLight_0_color": [0.2098183, 0.2426471, 0.1712803, 1],
				"SceneLight_1_color": [0.9779412, 0.506417, 0.4386354, 1],
				"ambient_light_color": [0.610186, 0.8382353, 0.7519463, 1],
				"Shininess": 0.4,
				"Cutoff": 0.5,
				"Color": [1, 1, 1, 1],
				"SpecColor": [0.2352941, 0.2352941, 0.2352941, 1],
				"MainTex_TexelSize": [0.001953125, 0.001953125, 512, 512],
				"BumpMap_TexelSize": [0.001953125, 0.001953125, 512, 512],
				"MainTex": "texture_f5c336cf-5108-4b40-ade9-c687504385ab_MainTex",
				"BumpMap": "texture_f5c336cf-5108-4b40-ade9-c687504385ab_BumpMap"
			},
			"name": "material_f5c336cf-5108-4b40-ade9-c687504385ab"
		},
		"material_a8fea537-da7c-4d4b-817f-24f074725d6d": {
			"technique": "technique_a8fea537-da7c-4d4b-817f-24f074725d6d",
			"values": {
				"SceneLight_0_color": [0.2098183, 0.2426471, 0.1712803, 1],
				"SceneLight_1_color": [0.9779412, 0.506417, 0.4386354, 1],
				"ambient_light_color": [0.610186, 0.8382353, 0.7519463, 1],
				"Cutoff": 0.5
			},
			"name": "material_a8fea537-da7c-4d4b-817f-24f074725d6d"
		}
	},
	"nodes": {
		"node_Ink_f5c336cf-5108-4b40-ade9-c687504385ab_0_i0": {
			"name": "node_Ink_f5c336cf-5108-4b40-ade9-c687504385ab_0_i0",
			"meshes": [
				"mesh_Ink_f5c336cf-5108-4b40-ade9-c687504385ab_0_i0"
			],
			"matrix": [1, 0, 0, 0, 0, 1, 0, 0, 0, 0, 1, 0, 0, 0, 0, 1]
		},
		"node_SceneLight_0_i1": {
			"name": "node_SceneLight_0_i1",
			"light": "SceneLight_0",
			"matrix": [-0.3333333, -0.6666666, -0.6666667, 0, -0.6666666, -0.3333335, 0.6666666, 0, -0.6666667, 0.6666666, -0.3333331, 0, 0, 0.05629165, 0.0325, 1]
		},
		"node_SceneLight_1_i2": {
			"name": "node_SceneLight_1_i2",
			"light": "SceneLight_1",
			"matrix": [1, 0, 0, 0, 0, 1, 0, 0, 0, 0, 1, 0, 3.874302E-09, 0.0417812, -0.04979291, 1]
		},
		"node_UnlitHull_a8fea537-da7c-4d4b-817f-24f074725d6d_0_i0": {
			"name": "node_UnlitHull_a8fea537-da7c-4d4b-817f-24f074725d6d_0_i0",
			"meshes": [
				"mesh_UnlitHull_a8fea537-da7c-4d4b-817f-24f074725d6d_0_i0"
			],
			"matrix": [1, 0, 0, 0, 0, 1, 0, 0, 0, 0, 1, 0, 0, 0, 0, 1]
		}
	},
	"scene": "defaultScene",
	"scenes": {
		"defaultScene": {
			"nodes": [
				"node_Ink_f5c336cf-5108-4b40-ade9-c687504385ab_0_i0",
				"node_SceneLight_0_i1",
				"node_SceneLight_1_i2",
				"node_UnlitHull_a8fea537-da7c-4d4b-817f-24f074725d6d_0_i0"
			],
			"extras": {
				"TB_EnvironmentGuid": "a9bc2bc8-6d86-4cda-82a9-283e0f3977ac",
				"TB_Environment": "Pistachio",
				"TB_UseGradient": "true",
				"TB_SkyColorA": "1, 0.5176471, 0.3529412",
				"TB_SkyColorB": "0.4588235, 0.7803922, 0.5529412",
				"TB_SkyGradientDirection": "0, 1, 0",
				"TB_FogColor": "0.2784314, 0.5686275, 0.4588235",
				"TB_FogDensity": "0.015",
				"TB_SkyColorHorizon": "1, 0.5176471, 0.3529412",
				"TB_SkyColorZenith": "0.4588235, 0.7803922, 0.5529412"
			}
		}
	}
}